<?xml version="1.0" encoding="UTF-8" standalone="no"?>
<!DOCTYPE svg PUBLIC "-//W3C//DTD SVG 1.1//EN"
 "http://www.w3.org/Graphics/SVG/1.1/DTD/svg11.dtd">
<!-- Generated by graphviz version 2.43.0 (0)
 -->
<!-- Title: %3 Pages: 1 -->
<svg width="156pt" height="210pt"
 viewBox="0.00 0.00 155.50 209.72" xmlns="http://www.w3.org/2000/svg" xmlns:xlink="http://www.w3.org/1999/xlink">
<g id="graph0" class="graph" transform="scale(1 1) rotate(0) translate(4 205.72)">
<title>%3</title>
<polygon fill="white" stroke="transparent" points="-4,4 -4,-205.72 151.5,-205.72 151.5,4 -4,4"/>
<!-- A -->
<g id="node1" class="node">
<title>A</title>
<polygon fill="lightgray" stroke="black" points="23,-201.72 0,-201.72 0,-183.72 23,-183.72 23,-201.72"/>
<text text-anchor="middle" x="11.5" y="-190.52" font-family="Times,serif" font-size="9.00">A</text>
</g>
<!-- 38 -->
<g id="node7" class="node">
<title>38</title>
<ellipse fill="white" stroke="black" cx="72.5" cy="-127.22" rx="20.51" ry="20.51"/>
<text text-anchor="middle" x="72.5" y="-125.02" font-family="Times,serif" font-size="9.00">38</text>
</g>
<!-- A&#45;&gt;38 -->
<g id="edge1" class="edge">
<title>A&#45;&gt;38</title>
<path fill="none" stroke="green" stroke-width="0.22" d="M19.23,-183.68C27.33,-175.25 40.4,-161.63 51.58,-150"/>
<polygon fill="green" stroke="green" stroke-width="0.22" points="54.17,-152.36 58.57,-142.72 49.12,-147.51 54.17,-152.36"/>
</g>
<!-- B -->
<g id="node2" class="node">
<title>B</title>
<polygon fill="lightgray" stroke="black" points="64,-201.72 41,-201.72 41,-183.72 64,-183.72 64,-201.72"/>
<text text-anchor="middle" x="52.5" y="-190.52" font-family="Times,serif" font-size="9.00">B</text>
</g>
<!-- B&#45;&gt;38 -->
<g id="edge2" class="edge">
<title>B&#45;&gt;38</title>
<path fill="none" stroke="green" stroke-width="0.4" d="M55.03,-183.68C57.19,-176.82 60.43,-166.53 63.54,-156.67"/>
<polygon fill="green" stroke="green" stroke-width="0.4" points="66.89,-157.69 66.55,-147.1 60.21,-155.59 66.89,-157.69"/>
</g>
<!-- C -->
<g id="node3" class="node">
<title>C</title>
<polygon fill="lightgray" stroke="black" points="105,-201.72 82,-201.72 82,-183.72 105,-183.72 105,-201.72"/>
<text text-anchor="middle" x="93.5" y="-190.52" font-family="Times,serif" font-size="9.00">C</text>
</g>
<!-- C&#45;&gt;38 -->
<g id="edge3" class="edge">
<title>C&#45;&gt;38</title>
<path fill="none" stroke="red" stroke-width="0.35" d="M90.84,-183.68C88.56,-176.77 85.12,-166.38 81.84,-156.46"/>
<polygon fill="red" stroke="red" stroke-width="0.35" points="85.12,-155.23 78.66,-146.83 78.47,-157.43 85.12,-155.23"/>
</g>
<!-- D -->
<g id="node4" class="node">
<title>D</title>
<polygon fill="lightgray" stroke="black" points="147.5,-201.72 123.5,-201.72 123.5,-183.72 147.5,-183.72 147.5,-201.72"/>
<text text-anchor="middle" x="135.5" y="-190.52" font-family="Times,serif" font-size="9.00">D</text>
</g>
<!-- D&#45;&gt;38 -->
<g id="edge4" class="edge">
<title>D&#45;&gt;38</title>
<path fill="none" stroke="red" stroke-width="0.31" d="M127.52,-183.68C119.16,-175.25 105.65,-161.63 94.11,-150"/>
<polygon fill="red" stroke="red" stroke-width="0.31" points="96.41,-147.35 86.89,-142.72 91.44,-152.28 96.41,-147.35"/>
</g>
<!-- Output -->
<g id="node5" class="node">
<title>Output</title>
<ellipse fill="lightblue" stroke="black" cx="37.5" cy="-35.36" rx="35.21" ry="35.21"/>
<text text-anchor="middle" x="37.5" y="-33.16" font-family="Times,serif" font-size="9.00">Output</text>
</g>
<!-- 1 -->
<g id="node6" class="node">
<title>1</title>
<ellipse fill="lightblue" stroke="black" cx="107.5" cy="-35.36" rx="16.03" ry="16.03"/>
<text text-anchor="middle" x="107.5" y="-33.16" font-family="Times,serif" font-size="9.00">1</text>
</g>
<!-- 38&#45;&gt;Output -->
<g id="edge5" class="edge">
<title>38&#45;&gt;Output</title>
<path fill="none" stroke="red" stroke-width="0.27" d="M65.25,-107.6C61.91,-99.02 57.79,-88.46 53.77,-78.13"/>
<polygon fill="red" stroke="red" stroke-width="0.27" points="57.01,-76.81 50.12,-68.76 50.49,-79.35 57.01,-76.81"/>
</g>
<!-- 38&#45;&gt;1 -->
<g id="edge6" class="edge">
<title>38&#45;&gt;1</title>
<path fill="none" stroke="green" stroke-width="0.36" d="M79.75,-107.6C85.09,-93.9 92.39,-75.16 98.16,-60.34"/>
<polygon fill="green" stroke="green" stroke-width="0.36" points="101.5,-61.4 101.87,-50.81 94.98,-58.86 101.5,-61.4"/>
</g>
</g>
</svg>
